PathFileType	4	(X/Y/Z)	./resultDataOpenSim/trcMotMarkerGrf/sub09/qtm-03-01.trc
DataRate	CameraRate	NumFrames	NumMarkers	Units	OrigDataRate	OrigDataStartFrame	OrigNumFrames
250.000000	250.000000	6	24	m	250.000000	418	477
Frame#	Time	L.Toe.Tip			R.Toe.Tip			L.Ankle.Lat			R.Ankle.Lat			L.Ankle.Med			R.Ankle.Med			L.Heel			R.Heel			L.Knee.Lat			R.Knee.Lat			L.Knee.Med			R.Knee.Med			L.Thigh.Upper			R.Thigh.Upper			L.ASIS			R.ASIS			V.Sacral			L.Acromium			R.Acromium			C7			L.Elbow			R.Elbow			L.Wrist.Lat			R.Wrist.Lat
		X1	Y1	Z1	X2	Y2	Z2	X3	Y3	Z3	X4	Y4	Z4	X5	Y5	Z5	X6	Y6	Z6	X7	Y7	Z7	X8	Y8	Z8	X9	Y9	Z9	X10	Y10	Z10	X11	Y11	Z11	X12	Y12	Z12	X13	Y13	Z13	X14	Y14	Z14	X15	Y15	Z15	X16	Y16	Z16	X17	Y17	Z17	X18	Y18	Z18	X19	Y19	Z19	X20	Y20	Z20	X21	Y21	Z21	X22	Y22	Z22	X23	Y23	Z23	X24	Y24	Z24

418	1.668	1.6353077	0.12749042	-0.053791167	0.99040674	0.038450843	0.084522064	1.483082	0.095837266	-0.084537016	0.84986919	0.075822067	0.11883805	1.5046662	0.12133379	0.0084317184	0.86837874	0.11350671	0.028124492	1.4385982	0.033099314	-0.037769013	0.77719068	0.070801776	0.06827844	1.3368869	0.48685583	-0.11214444	1.0599411	0.48836408	0.17946806	1.336871	0.47641763	0.015233104	1.0448171	0.48223709	0.053748106	1.1597329	0.86454705	-0.14014075	1.1127784	0.88785286	0.23157314	1.2272374	0.95877331	-0.078451734	1.2202705	0.97045392	0.1626351	1.0538343	1.0092707	0.028703571	1.1825918	1.4103751	-0.14597116	1.1812555	1.4347948	0.18445551	1.1136427	1.4679997	0.020139433	1.0402084	1.0696318	-0.19747616	1.0876857	1.0773698	0.29855909	1.1668123	0.84301987	-0.24944998	1.3173323	0.92233838	0.2714905
419	1.672	1.6409325	0.12703646	-0.054004861	0.99052422	0.038491731	0.084641893	1.488645	0.094852257	-0.084080588	0.85051621	0.077032294	0.11926797	1.5105728	0.12080196	0.0087375345	0.86925767	0.1145879	0.028495613	1.4445889	0.031946812	-0.036270862	0.77770941	0.07267144	0.068695673	1.342327	0.48601185	-0.11224726	1.0644545	0.48764898	0.1793771	1.3424554	0.47550581	0.015011871	1.0494993	0.48152652	0.053758495	1.166019	0.86321853	-0.14056477	1.1179381	0.88708964	0.23108267	1.2328626	0.95754997	-0.07892122	1.2258979	0.96952724	0.16217946	1.059494	1.0082753	0.027910507	1.1879459	1.4093329	-0.14638326	1.1863855	1.4338033	0.18407484	1.1188761	1.4669908	0.019684686	1.0456659	1.0685068	-0.1978616	1.0926701	1.0763847	0.2979859	1.1721532	0.84187008	-0.24984531	1.3222848	0.92109414	0.27138256
420	1.676	1.6459494	0.12591261	-0.054176179	0.99065393	0.038544452	0.084750047	1.4935463	0.09362604	-0.083579808	0.85121665	0.078323266	0.11971469	1.5157593	0.12012704	0.0090709811	0.87019693	0.11572092	0.028879965	1.4498483	0.030527923	-0.034209423	0.77827387	0.07463682	0.069132864	1.3479464	0.4852894	-0.11236339	1.0691354	0.48688139	0.17931074	1.3483866	0.4747424	0.014766409	1.0543265	0.48074696	0.053772363	1.1722403	0.86196051	-0.14102968	1.1230536	0.88632017	0.23060956	1.2385221	0.95632055	-0.079429401	1.2315541	0.96858684	0.16171381	1.0651599	1.0072808	0.027166711	1.1933072	1.4083037	-0.14680418	1.1915233	1.4328036	0.18368256	1.1241349	1.4659989	0.019218762	1.0511604	1.0673819	-0.19824233	1.0975319	1.0753562	0.2973205	1.177525	0.8407252	-0.25022553	1.32727	0.91982657	0.27127311
421	1.68	1.6503993	0.12412586	-0.05426378	0.99080656	0.038620387	0.084832957	1.4978219	0.092186207	-0.083058519	0.85200994	0.079706265	0.12017684	1.5202248	0.11930714	0.009391153	0.87120154	0.11690647	0.029281217	1.454343	0.028946453	-0.031994449	0.77889183	0.076700233	0.069592824	1.3537319	0.48466574	-0.11247908	1.0739756	0.48608393	0.17927494	1.3546575	0.47415645	0.014534878	1.0592656	0.47987934	0.053768043	1.178373	0.86080805	-0.14155489	1.1282526	0.88552985	0.23011462	1.2442206	0.95511142	-0.079972298	1.2372535	0.96763057	0.1612314	1.0708475	1.0062915	0.026457193	1.1986721	1.4072888	-0.14723903	1.1966734	1.4317994	0.18327864	1.1294277	1.4650344	0.018745586	1.0566879	1.0662569	-0.19864489	1.1022819	1.074292	0.29657643	1.1829269	0.83958601	-0.25059139	1.3322713	0.91854266	0.27116816
422	1.684	1.6543155	0.12174024	-0.0542378	0.9909913	0.03872482	0.0848866	1.5014931	0.090556896	-0.082531834	0.85291347	0.081184367	0.12066036	1.5240828	0.11823395	0.0097004563	0.8722771	0.11814785	0.02970375	1.4580051	0.027388128	-0.030186622	0.77957465	0.078867287	0.070079279	1.3596678	0.48409834	-0.11258624	1.0789621	0.48528294	0.17926348	1.3612136	0.47374854	0.014335246	1.0642658	0.47890562	0.053698174	1.1843877	0.85979448	-0.14215366	1.1338238	0.88471321	0.2294908	1.2499618	0.95394795	-0.080547705	1.2430005	0.96665803	0.16072558	1.0765584	1.0053148	0.025739809	1.2040398	1.4062895	-0.14769591	1.201837	1.4307966	0.18287033	1.1347448	1.4640958	0.018262663	1.0622392	1.065135	-0.19907273	1.1070047	1.0732315	0.29581348	1.1883603	0.83845542	-0.25094135	1.3372596	0.9172403	0.27107411
423	1.688	1.6577213	0.11885191	-0.054080528	0.99120745	0.038843749	0.084935022	1.5046098	0.088753538	-0.082020686	0.85389227	0.082746094	0.12116931	1.5274731	0.116752	0.010033512	0.87342916	0.11945059	0.030151522	1.4608063	0.025979828	-0.029049674	0.78033419	0.08114992	0.070593774	1.3657472	0.48353986	-0.11268485	1.0840633	0.48446223	0.1792471	1.3679454	0.47349522	0.014164676	1.0693024	0.47782528	0.053535785	1.1902585	0.8589424	-0.14282385	1.1402846	0.8838809	0.22854991	1.2557451	0.95285359	-0.081155744	1.2487913	0.96567193	0.16019323	1.0822882	1.0043551	0.024987311	1.2094113	1.4053083	-0.14817722	1.2070147	1.4297973	0.18246185	1.140075	1.4631713	0.017773584	1.0678093	1.0640225	-0.19950649	1.1118019	1.0722205	0.29510143	1.1938287	0.83733576	-0.25127504	1.3421993	0.91590643	0.27099766
